PathFileType	4	(X/Y/Z)	Run_200 02
DataRate	CameraRate	NumFrames	NumMarkers	Units	OrigDataRate	OrigDataStartFrame	OrigNumFrames
100	100	8	42	mm	100	101	128
Frame#	Time	RASI			LPSI			RPSI			RTH1			RTH2			RTH3			LTH1			LTH2			LTH3			RTB1			RTB2			RTB3			LTB1			LTB2			LTB3			RCAL			RTOE			RMT5			LCAL			LTOE			LMT5			LACR			RACR			C7			RUA1			RUA2			RUA3			RLEL			RMEL			LUA2			LUA3			LLEL			LMEL			RFAsuperior			RFAradius			RFAulna			LFAsuperior			LFAradius			LFAulna			LUA1			CLAV			LASI			
		X1	Y1	Z1	X2	Y2	Z2	X3	Y3	Z3	X4	Y4	Z4	X5	Y5	Z5	X6	Y6	Z6	X7	Y7	Z7	X8	Y8	Z8	X9	Y9	Z9	X10	Y10	Z10	X11	Y11	Z11	X12	Y12	Z12	X13	Y13	Z13	X14	Y14	Z14	X15	Y15	Z15	X16	Y16	Z16	X17	Y17	Z17	X18	Y18	Z18	X19	Y19	Z19	X20	Y20	Z20	X21	Y21	Z21	X22	Y22	Z22	X23	Y23	Z23	X24	Y24	Z24	X25	Y25	Z25	X26	Y26	Z26	X27	Y27	Z27	X28	Y28	Z28	X29	Y29	Z29	X30	Y30	Z30	X31	Y31	Z31	X32	Y32	Z32	X33	Y33	Z33	X34	Y34	Z34	X35	Y35	Z35	X36	Y36	Z36	X37	Y37	Z37	X38	Y38	Z38	X39	Y39	Z39	X40	Y40	Z40	X41	Y41	Z41	X42	Y42	Z42	

89	1.71	1228.017615	994.615574	-182.547108	1055.061472	1023.416102	-363.704077	1052.162706	1025.288266	-271.484289	1219.806404	826.798142	-130.092546	1281.353374	740.084055	-146.081813	1261.822082	598.186951	-178.023838	1162.662666	819.295755	-492.422529	1222.545295	693.043901	-472.971326	1148.589846	575.93422	-470.266915	1315.614824	346.241219	-269.886739	1252.975669	251.483801	-226.762878	1250.025543	183.375421	-297.525244	1024.986499	352.077187	-404.640509	955.6533460000001	359.758119	-446.896975	892.111069	311.042595	-393.557109	1109.359686	102.858579	-293.547361	1343.853706	75.34191	-317.622842	1329.800479	55.75789	-240.595186	729.339187	367.249018	-378.252086	805.649116	138.168629	-358.396248	773.121322	152.648304	-442.661956	1223.373477	1505.669765	-468.71853	1208.996457	1472.753073	-121.215704	1159.032574	1526.079671	-298.620019	1131.05175	1346.041225	-48.85487	1061.062586	1348.394855	-54.010501	1063.866577	1275.994778	-38.52004	1017.993134	1210.410209	-22.826575	986.604349	1215.012896	-111.55951	1069.07955	1365.818786	-533.311457	1093.308728	1291.068699	-572.4857909999999	1065.023161	1228.660121	-590.5188450000001	1024.885996	1220.218814	-507.471322	1103.468543	1195.752911	-36.480827	1251.935802	1179.953565	-120.714587	1235.834773	1114.281317	-95.782359	1140.889389	1185.190711	-569.75135	1282.719212	1148.806811	-464.376126	1265.986185	1084.324674	-492.205821	1155.513224	1401.841528	-546.563093	1265.77373	1428.935878	-265.343924	1227.272663	981.816917	-441.424891	
90	1.72	1227.343309	991.033685	-183.157514	1053.291426	1018.517195	-363.532911	1051.032513	1021.333821	-271.174617	1218.713193	822.751202	-130.526813	1279.160744	735.278006	-147.194391	1258.09752	593.016157	-178.86721	1162.265846	815.1118719999999	-493.457708	1228.584912	690.6848680000001	-475.385835	1158.559921	572.257303	-473.29675	1306.105618	340.826699	-269.520304	1239.17938	248.929905	-226.933679	1233.853174	181.059464	-297.725819	1039.262834	349.885845	-407.650503	970.160409	358.630149	-450.093069	905.946741	310.600412	-396.862568	1089.826937	103.429804	-293.559102	1324.24201	74.401	-317.803774	1310.122938	54.839137	-240.429983	741.806368	367.758986	-381.524445	820.351583	139.324793	-362.859491	789.517146	154.57008	-447.755745	1220.134903	1499.668841	-468.961151	1211.095228	1465.562794	-120.218636	1159.696681	1522.09639	-297.548862	1138.967803	1332.992487	-50.904324	1068.228298	1333.755581	-51.775632	1073.177061	1261.084711	-40.222693	1030.227885	1194.455533	-23.630669	996.828292	1198.376599	-111.285707	1062.799816	1360.486055	-527.998067	1085.145443	1284.792434	-566.79935	1055.673173	1223.249344	-584.881993	1018.438978	1214.238918	-500.404616	1116.180016	1180.400574	-38.827702	1263.03702	1163.970023	-122.946857	1246.471637	1097.965117	-98.14452300000001	1131.269866	1177.092721	-567.15172	1274.166057	1128.995783	-469.232414	1252.8218	1066.874073	-499.913677	1149.835718	1395.442174	-544.646758	1266.517945	1424.282717	-265.384369	1224.794419	977.364588	-443.300412	
91	1.73	1226.695638	988.073122	-184.148032	1051.76082	1015.152922	-363.45309	1050.124892	1018.658891	-270.760873	1217.11505	819.476891	-130.793411	1276.354214	731.017461	-147.741629	1252.86291	588.451175	-179.359461	1161.292046	811.969578	-494.302367	1234.92561	689.36241	-477.557133	1169.29702	569.781976	-476.64138	1295.256107	335.590457	-269.288745	1225.014782	246.228606	-227.24527	1217.092369	179.042451	-298.120885	1054.215935	348.323395	-410.939266	985.239716	358.051996	-453.307155	920.77553	309.842547	-400.3445	1070.230909	104.103817	-293.701259	1304.522054	73.69895	-318.207158	1290.310166	54.650205	-240.506926	755.195561	366.875242	-384.659485	837.036727	139.519677	-367.056764	806.857603	154.97144	-452.160144	1215.536448	1495.627848	-469.038179	1213.610638	1459.721737	-119.554661	1159.593609	1518.184146	-296.480761	1146.898619	1322.830966	-53.194494	1075.765563	1321.676229	-50.972964	1082.493194	1249.34194	-41.804403	1042.642553	1181.269324	-25.216102	1006.578666	1184.387043	-111.717805	1056.192889	1356.880443	-522.771032	1076.871583	1280.783441	-561.665508	1046.421181	1219.900622	-579.613321	1011.428903	1210.176494	-494.023974	1129.426632	1168.666269	-42.426216	1274.842709	1151.251646	-125.794382	1257.276629	1084.918616	-101.138309	1121.853807	1171.298245	-564.753337	1264.279348	1112.165024	-473.678143	1238.456848	1052.639632	-506.859207	1143.116687	1391.093196	-542.620832	1266.873068	1420.241795	-265.739244	1221.938172	973.638162	-445.682148	
92	1.74	1226.04515	985.771082	-185.318126	1050.290019	1013.272963	-363.532463	1049.365662	1017.150636	-270.379553	1214.819344	816.79081	-131.106157	1272.84049	727.337935	-147.699498	1246.524246	584.795679	-179.539518	1159.882933	809.706585	-495.040849	1241.238751	689.446738	-479.651603	1180.549043	568.331103	-479.906129	1283.020869	331.023128	-269.824041	1210.369296	243.713512	-227.604862	1199.718214	177.470835	-298.559376	1069.667541	347.482338	-414.153432	1000.694957	357.819401	-456.257718	936.3966390000001	308.8028	-403.676554	1050.550244	104.873794	-293.963203	1284.707711	73.194501	-318.560522	1270.328853	54.893909	-240.662405	769.319442	364.594395	-387.450713	855.4452240000001	138.743216	-371.095198	825.0662620000001	154.07648	-456.174695	1209.929423	1493.319185	-468.972084	1216.834605	1455.405759	-119.013211	1158.919483	1514.906317	-295.176714	1153.935364	1315.714724	-54.85783	1082.881152	1312.373962	-51.205263	1091.3414	1240.520203	-43.374354	1054.137253	1171.182517	-27.298645	1015.523719	1173.83373	-112.795526	1048.768226	1355.181779	-517.687008	1067.903454	1279.134768	-557.206859	1036.419876	1218.875662	-574.975859	1003.298527	1208.545935	-488.562906	1141.685751	1159.909601	-46.270789	1286.355778	1142.958026	-129.145393	1267.872574	1076.281555	-104.978216	1111.198098	1167.424829	-563.164258	1253.110048	1099.823839	-478.255891	1223.155946	1042.599595	-512.775827	1135.022452	1388.948012	-540.495614	1266.953047	1417.359906	-266.36499	1219.487805	971.086503	-447.664869	
93	1.75	1225.408609	984.129535	-186.341755	1048.694573	1012.690095	-363.384649	1048.763848	1016.717906	-270.064203	1212.016427	814.6283	-131.710743	1268.610957	724.206882	-147.584574	1239.323533	581.929306	-179.486758	1158.583882	808.5477969999999	-495.803863	1247.287291	691.184125	-481.755065	1191.821429	568.168829	-482.795992	1269.43097	327.230007	-270.755813	1195.022599	241.572329	-227.849247	1181.862064	176.253073	-298.759532	1085.459701	347.574037	-416.98457	1016.33491	357.754869	-458.74016	952.670822	307.560844	-406.597164	1030.785584	105.720687	-294.127502	1264.787399	72.735238	-318.663282	1250.218278	55.056617	-240.68144	783.913952	360.916014	-389.712293	875.425374	137.088506	-374.880447	844.48195	152.185971	-459.875014	1203.856006	1492.487951	-468.723826	1220.789488	1452.78731	-118.680724	1158.159731	1513.026069	-293.523306	1159.919295	1311.442431	-55.737389	1089.24862	1306.007801	-51.750927	1099.397278	1234.430593	-45.024067	1063.953609	1164.226254	-29.511343	1023.830998	1167.056123	-114.37236	1040.292553	1355.757025	-512.644409	1057.666714	1279.94183	-553.457005	1024.783344	1220.328248	-570.986667	993.847361	1209.77679	-483.870299	1151.84303	1153.684742	-49.552399	1296.427548	1139.812829	-133.052021	1277.936888	1072.727262	-109.755207	1098.047723	1165.59494	-562.552771	1240.845733	1093.228132	-483.319734	1207.334345	1037.560192	-517.6216010000001	1125.701318	1389.083914	-538.321047	1266.953553	1415.949788	-267.262135	1217.996087	970.026511	-448.620392	
94	1.76	1224.816799	983.158945	-186.988739	1047.032526	1013.275075	-362.779365	1048.315853	1017.27767	-269.949678	1208.975492	813.151739	-132.518653	1263.769858	721.616869	-147.824425	1231.318509	579.6924310000001	-179.275335	1158.117224	808.8627310000001	-496.649393	1252.965266	694.545508	-483.811239	1202.554425	569.728757	-485.210143	1254.742064	324.148624	-271.334384	1178.96552	239.944734	-227.901837	1163.672598	175.338144	-298.602742	1101.409703	348.806788	-419.340122	1031.988189	357.805266	-460.709282	969.448932	306.174543	-408.997501	1010.968113	106.702269	-294.014011	1244.767725	72.246332	-318.546559	1230.032858	54.911016	-240.517246	798.778783	355.813127	-391.323988	896.929081	134.682838	-378.324908	865.405474	149.535586	-463.178921	1197.752165	1493.018558	-468.27133	1225.148593	1451.982872	-118.783652	1157.685245	1512.892457	-291.695183	1165.394414	1309.683111	-56.337555	1095.057209	1302.735877	-52.008634	1106.519663	1231.191814	-46.532524	1072.072705	1160.334678	-31.498095	1031.712122	1163.888576	-116.138114	1031.022104	1358.913263	-507.495515	1046.023137	1283.34099	-550.3372429999999	1011.299134	1224.385244	-567.4834070000001	983.3309819999999	1214.017644	-479.662556	1159.887937	1150.560725	-52.170785	1304.402721	1141.948688	-137.71395	1287.274011	1074.40389	-115.235176	1082.566856	1166.755026	-562.515461	1227.88615	1092.841157	-488.644479	1191.61018	1037.886732	-521.448388	1115.642743	1391.472714	-536.146784	1267.023858	1415.94993	-268.498394	1217.402244	970.42027	-448.56939	
95	1.77	1224.316149	982.954665	-187.241915	1045.712006	1015.018472	-362.058853	1047.955051	1018.749072	-270.175002	1205.756255	812.514447	-133.228433	1258.446635	719.628925	-148.437533	1222.479651	578.146813	-178.961125	1158.919508	810.806967	-497.5562	1258.24882	699.324112	-485.71038	1212.344475	573.1923829999999	-487.180004	1239.297417	321.798624	-271.293928	1162.257258	238.985906	-227.78359	1145.233375	174.819497	-298.192846	1117.342619	351.160252	-421.337956	1047.549192	358.043281	-462.289739	986.564192	304.647436	-410.879521	991.181409	107.912877	-293.722253	1224.709702	71.77445899999999	-318.409252	1209.81726	54.55072	-240.294276	813.871428	349.252767	-392.229592	919.9200520000001	131.641726	-381.481874	887.826612	146.266767	-466.105568	1191.823667	1494.915853	-467.661644	1229.414648	1453.010333	-119.420699	1157.466393	1514.339693	-290.069034	1170.932978	1310.108601	-57.169908	1100.662787	1302.503369	-51.721043	1112.823213	1230.89795	-47.533052	1079.080672	1159.381661	-32.967319	1038.960567	1163.809723	-117.569369	1021.579172	1364.619577	-502.146991	1033.390752	1289.440267	-547.676645	996.67464	1231.124234	-564.275798	972.1732019999999	1220.992009	-475.804859	1166.634624	1151.458802	-54.503566	1310.373911	1148.907744	-143.151103	1295.805144	1080.93751	-121.005057	1066.296086	1171.953108	-562.401998	1214.783371	1098.096972	-493.639637	1176.615253	1043.2291	-524.2839289999999	1105.385152	1396.008162	-533.971433	1267.156716	1417.198961	-270.16194	1217.267562	971.995102	-447.949064	
96	1.78	1223.961623	983.693115	-187.210446	1045.192741	1017.930458	-361.796705	1047.635919	1021.104249	-270.70325	1202.291995	812.71944	-133.67976	1252.709073	718.352305	-149.200344	1212.781664	577.482062	-178.616342	1160.84668	814.231374	-498.488451	1263.134338	705.303888	-487.405415	1221.060133	578.3417009999999	-488.770398	1223.284805	320.289755	-270.966579	1144.875558	238.809456	-227.571618	1126.614343	174.812829	-297.740675	1133.142904	354.289981	-423.138287	1062.970896	358.565042	-463.660047	1003.925352	302.95051	-412.264665	971.544994	109.40027	-293.568216	1204.696645	71.385599	-318.426637	1189.60627	54.197823	-240.161203	829.2907750000001	341.238331	-392.391724	944.300563	128.071615	-384.507997	911.484286	142.462952	-468.836148	1186.122784	1498.202049	-467.017054	1233.193607	1455.789149	-120.517508	1157.179788	1517.022725	-288.973541	1176.616996	1312.452556	-58.284227	1106.274172	1304.861627	-50.893365	1118.683865	1233.230442	-47.847951	1085.680877	1161.055307	-33.717167	1045.058971	1166.171067	-118.059287	1012.598413	1372.464032	-496.596407	1020.503259	1298.165789	-545.301307	982.071729	1240.449486	-561.230711	960.715062	1230.124261	-472.322332	1172.88148	1156.422808	-56.789903	1314.830394	1159.810793	-148.935033	1303.501137	1091.49487	-126.742495	1050.92293	1181.340561	-561.790297	1202.041278	1107.719614	-497.859339	1162.722454	1052.576026	-526.126904	1095.337573	1402.538247	-531.756593	1267.208507	1419.674302	-272.311049	1217.244066	974.550135	-447.133221	
